<svg width="22" height="22" viewBox="0 0 22 22" fill="none" xmlns="http://www.w3.org/2000/svg">
<mask id="mask0_2165_22806" style="mask-type:alpha" maskUnits="userSpaceOnUse" x="0" y="0" width="22" height="22">
<rect width="22" height="22" fill="#D9D9D9"/>
</mask>
<g mask="url(#mask0_2165_22806)">
<path d="M4.58333 19.2469C4.07917 19.2469 3.64757 19.0674 3.28854 18.7083C2.92951 18.3493 2.75 17.9177 2.75 17.4135V4.58021C2.75 4.07604 2.92951 3.64444 3.28854 3.28542C3.64757 2.92639 4.07917 2.74688 4.58333 2.74688H10.5646C10.8701 2.74688 11.0993 2.84236 11.2521 3.03333C11.4049 3.22431 11.4813 3.43438 11.4813 3.66354C11.4813 3.89271 11.401 4.10278 11.2406 4.29375C11.0802 4.48472 10.8472 4.58021 10.5417 4.58021H4.58333V17.4135H17.4167V11.4323C17.4167 11.1267 17.5122 10.8976 17.7031 10.7448C17.8941 10.592 18.1042 10.5156 18.3333 10.5156C18.5625 10.5156 18.7726 10.592 18.9635 10.7448C19.1545 10.8976 19.25 11.1267 19.25 11.4323V17.4135C19.25 17.9177 19.0705 18.3493 18.7115 18.7083C18.3524 19.0674 17.9208 19.2469 17.4167 19.2469H4.58333ZM8.25 12.8302V10.6073C8.25 10.3628 8.29583 10.1299 8.3875 9.90833C8.47917 9.68681 8.60903 9.49201 8.77708 9.32396L16.6604 1.44063C16.8438 1.25729 17.05 1.11979 17.2792 1.02813C17.5083 0.936458 17.7375 0.890625 17.9667 0.890625C18.2111 0.890625 18.4441 0.936458 18.6656 1.02813C18.8872 1.11979 19.0896 1.25729 19.2729 1.44063L20.5563 2.74688C20.7243 2.93021 20.8542 3.13264 20.9458 3.35417C21.0375 3.57569 21.0833 3.80104 21.0833 4.03021C21.0833 4.25937 21.0413 4.48472 20.9573 4.70625C20.8733 4.92778 20.7396 5.13021 20.5563 5.31354L12.6729 13.1969C12.5049 13.3649 12.3101 13.4986 12.0885 13.5979C11.867 13.6972 11.634 13.7469 11.3896 13.7469H9.16667C8.90694 13.7469 8.68924 13.659 8.51354 13.4833C8.33785 13.3076 8.25 13.0899 8.25 12.8302ZM10.0833 11.9135H11.3667L16.6833 6.59687L16.0417 5.95521L15.3771 5.31354L10.0833 10.6073V11.9135Z" fill="#0051A3"/>
</g>
</svg>
