<svg xmlns="http://www.w3.org/2000/svg" xmlns:xlink="http://www.w3.org/1999/xlink" width="24" height="24" viewBox="0 0 24 24">
  <defs>
    <clipPath id="clip-path">
      <rect id="長方形_47" data-name="長方形 47" width="24" height="24" fill="#0060b0" stroke="#707070" stroke-width="1"/>
    </clipPath>
  </defs>
  <g id="マスクグループ_10" data-name="マスクグループ 10" clip-path="url(#clip-path)">
    <path id="_" data-name="􀆈" d="M-3.007-5.993a1.157,1.157,0,0,1,.1-.471,1.4,1.4,0,0,1,.3-.416l6.382-6.252a1.08,1.08,0,0,1,.787-.316,1.1,1.1,0,0,1,.562.15,1.13,1.13,0,0,1,.408.4,1.072,1.072,0,0,1,.151.562,1.117,1.117,0,0,1-.35.813L-.346-6,5.334-.464a1.131,1.131,0,0,1,.35.816,1.072,1.072,0,0,1-.151.562,1.13,1.13,0,0,1-.408.4,1.1,1.1,0,0,1-.562.15,1.07,1.07,0,0,1-.787-.321L-2.606-5.106a1.379,1.379,0,0,1-.3-.417A1.131,1.131,0,0,1-3.007-5.993Z" transform="translate(10.661 17.992)" fill="#0060b0"/>
  </g>
</svg>
