<svg xmlns="http://www.w3.org/2000/svg" width="21.5" height="25" viewBox="0 0 21.5 25">
  <g id="グループ_3" data-name="グループ 3" transform="translate(-810.5 -1041.5)">
    <path id="線_1" data-name="線 1" d="M0,24a1,1,0,0,1-1-1V0A1,1,0,0,1,0-1,1,1,0,0,1,1,0V23A1,1,0,0,1,0,24Z" transform="translate(811.5 1042.5)" fill="#fff"/>
    <path id="合体_1" data-name="合体 1" d="M11.793,24.707l-11.5-11.5a1,1,0,0,1,0-1.415l11.5-11.5a1,1,0,1,1,1.415,1.415L2.415,12.5,13.207,23.293a1,1,0,1,1-1.415,1.414Z" transform="translate(818.5 1041.5)" fill="#fff"/>
  </g>
</svg>
