<svg xmlns="http://www.w3.org/2000/svg" width="17.064" height="17.773" viewBox="0 0 17.064 17.773">
  <g id="グループ_25" data-name="グループ 25" transform="translate(-164.056 -90.774)">
    <g id="グループ_24" data-name="グループ 24">
      <path id="合体_17" data-name="合体 17" d="M-869.242-1679.108l-4.543-4.543.707-.707,4.542,4.543a.452.452,0,0,1-.086.621.566.566,0,0,1-.388.176A.321.321,0,0,1-869.242-1679.108Zm-14.028-5.543a7,7,0,0,1,0-9.9,7,7,0,0,1,9.9,0,7,7,0,0,1,0,9.9,6.977,6.977,0,0,1-4.95,2.05A6.977,6.977,0,0,1-883.27-1684.651Zm.706-9.193a6.007,6.007,0,0,0,0,8.485,6.006,6.006,0,0,0,8.485,0,6.006,6.006,0,0,0,0-8.485,5.98,5.98,0,0,0-4.242-1.754A5.983,5.983,0,0,0-882.563-1693.843Z" transform="translate(1049.565 1787.565)" fill="#0051a4"/>
      <path id="楕円形_3_-_アウトライン" data-name="楕円形 3 - アウトライン" d="M5.084,1A4.084,4.084,0,1,0,9.169,5.084,4.089,4.089,0,0,0,5.084,1m0-1A5.084,5.084,0,1,1,0,5.084,5.084,5.084,0,0,1,5.084,0Z" transform="translate(164.056 97.964) rotate(-45)" fill="#0051a4"/>
    </g>
    <line id="線_5" data-name="線 5" y2="6" transform="translate(171.28 95)" fill="none" stroke="#0051a4" stroke-width="1"/>
    <line id="線_6" data-name="線 6" x2="6" transform="translate(168.28 98)" fill="none" stroke="#0051a4" stroke-width="1"/>
  </g>
</svg>
