<svg xmlns="http://www.w3.org/2000/svg" width="31" height="30" viewBox="0 0 31 30">
  <g id="グループ_17" data-name="グループ 17" transform="translate(-30.962 -246.695)">
    <path id="合体_8" data-name="合体 8" d="M4.276,30V24H0V7.637H4.276V0H20.845a6.481,6.481,0,0,1,6.414,6.546V7.637H31V24H27.258v6Zm1.6-1.636H25.655V14.182H5.88Zm0-20.727H25.655V6.546h-4.81V1.637H5.88ZM22.448,4.909h2.932a4.886,4.886,0,0,0-2.932-2.992Z" transform="translate(30.962 246.695)" fill="#0051a4"/>
    <path id="線_5" data-name="線 5" d="M14.623.125H0V-1.5H14.623Z" transform="translate(39.402 265.197)" fill="#0051a4"/>
    <path id="線_6" data-name="線 6" d="M14.623.125H0V-1.5H14.623Z" transform="translate(39.402 268.988)" fill="#0051a4"/>
    <path id="線_7" data-name="線 7" d="M9.207.125H0V-1.5H9.207Z" transform="translate(39.402 272.78)" fill="#0051a4"/>
  </g>
</svg>
