<svg xmlns="http://www.w3.org/2000/svg" width="20.461" height="20.461" viewBox="0 0 20.461 20.461">
  <path id="合体_2" data-name="合体 2" d="M-880,516.437V504.405h.812v12.032a3.7,3.7,0,0,0,3.656,3.734,3.7,3.7,0,0,0,3.49-3.878v-.825h-.005V504.135a2.193,2.193,0,0,0-2.209-2.17,2.192,2.192,0,0,0-2.209,2.17v11.333h-.025v1.015a.971.971,0,0,0,.958.982.971.971,0,0,0,.957-.982v-10.8h.957v10.8a1.942,1.942,0,0,1-1.915,1.963,1.942,1.942,0,0,1-1.915-1.963V504.135A3.167,3.167,0,0,1-874.255,501a3.167,3.167,0,0,1,3.191,3.134v12.3A4.522,4.522,0,0,1-875.532,521,4.522,4.522,0,0,1-880,516.437Z" transform="translate(990.657 267.993) rotate(45)" fill="#0051a4"/>
</svg>
