<svg xmlns="http://www.w3.org/2000/svg" xmlns:xlink="http://www.w3.org/1999/xlink" width="111" height="176" viewBox="0 0 111 176">
  <defs>
    <clipPath id="clip-path">
      <rect id="長方形_4011" data-name="長方形 4011" width="111" height="176" rx="4" transform="translate(291 206)" fill="#fff"/>
    </clipPath>
    <clipPath id="clip-path-2">
      <rect id="長方形_4046" data-name="長方形 4046" width="96" height="96" transform="translate(0.435 0.435)" fill="#0060b0" stroke="#707070" stroke-width="1"/>
    </clipPath>
  </defs>
  <g id="マスクグループ_25" data-name="マスクグループ 25" transform="translate(-291 -206)" clip-path="url(#clip-path)">
    <g id="マスクグループ_34" data-name="マスクグループ 34" transform="translate(298.565 245.565)" clip-path="url(#clip-path-2)">
      <g id="グループ_318" data-name="グループ 318" transform="translate(0.435 14.142)">
        <path id="前面オブジェクトで型抜き_3" data-name="前面オブジェクトで型抜き 3" d="M43.634,56.988h-6.02a1.413,1.413,0,0,1-1.408-1.413V55.2H7.2A7.206,7.206,0,0,1,0,48V6.677C0,5.239,2,4.438,3.67,4.019a2.257,2.257,0,0,1,1.1-1.108A22.381,22.381,0,0,1,8.292,1.676a42.322,42.322,0,0,1,4.323-.9A68.771,68.771,0,0,1,23.17,0,72.451,72.451,0,0,1,31.3.443a47.354,47.354,0,0,1,6.754,1.233,24.55,24.55,0,0,1,2.574.838,24.674,24.674,0,0,1,2.571-.838,42.237,42.237,0,0,1,4.327-.9A68.754,68.754,0,0,1,58.077,0,72.35,72.35,0,0,1,66.2.443a47.493,47.493,0,0,1,6.757,1.233,22.312,22.312,0,0,1,3.516,1.235,2.262,2.262,0,0,1,1.106,1.108c1.674.418,3.669,1.219,3.669,2.657V36.72H73.27V6.491c-.437-.153-.939-.307-1.49-.456a37.525,37.525,0,0,0-3.856-.8,64.536,64.536,0,0,0-9.848-.717,67.066,67.066,0,0,0-7.615.413,42.456,42.456,0,0,0-6.089,1.106c-.57.155-1.058.3-1.493.457V47.025c.076-.021.147-.043.223-.066l.092-.028a42.512,42.512,0,0,1,4.327-.9l.253-.039V55.2H45.042v.375A1.413,1.413,0,0,1,43.634,56.988ZM23.171,45.255A72.281,72.281,0,0,1,31.3,45.7a46.831,46.831,0,0,1,6.755,1.232l.11.033.014,0c.064.02.128.039.194.057V6.491c-.44-.154-.943-.308-1.492-.456a37.4,37.4,0,0,0-3.856-.8,64.485,64.485,0,0,0-9.848-.717,67.042,67.042,0,0,0-7.612.413A42.6,42.6,0,0,0,9.467,6.034c-.572.156-1.06.305-1.493.457V47.025c.065-.018.126-.037.191-.056l.009,0,.118-.035a42.415,42.415,0,0,1,4.324-.9A69.165,69.165,0,0,1,23.171,45.255Z" transform="translate(0)" fill="#0060b0"/>
        <path id="中マド_10" data-name="中マド 10" d="M43,32H2a2,2,0,0,1-2-2V2A2,2,0,0,1,2,0H43a2,2,0,0,1,2,2V30A2,2,0,0,1,43,32ZM4.215,3.2a1,1,0,0,0-1,1V27.8a1,1,0,0,0,1,1H40.785a1,1,0,0,0,1-1V4.2a1,1,0,0,0-1-1ZM19.483,21.682a1,1,0,0,1-1-1V11.319a1,1,0,0,1,1-1,.987.987,0,0,1,.493.132L28.2,15.131a1,1,0,0,1,0,1.739l-8.228,4.68A.987.987,0,0,1,19.483,21.682Z" transform="translate(51 40.293)" fill="#0060b0"/>
      </g>
    </g>
  </g>
</svg>
