<svg width="140" height="28" viewBox="0 0 140 28" fill="none" xmlns="http://www.w3.org/2000/svg">
<path d="M14.7107 23.7246H3.18385C1.91503 23.7246 1.0118 23.08 1.0118 21.6362C1.0118 20.8112 1.35589 20.1408 1.85051 19.6252L12.5602 5.80564C12.7537 5.59938 12.8183 5.47046 12.8183 5.34155C12.8183 5.16107 12.7322 5.05794 12.5172 5.05794H1.63546C1.16234 5.05794 0.925781 4.72276 0.925781 4.15554V3.69146C0.925781 3.15002 1.16234 2.78906 1.63546 2.78906H13.0548C14.5387 2.78906 15.1408 3.7688 15.1408 4.90324C15.1408 5.72829 14.9258 6.26973 14.1516 7.06899L3.50643 20.8112C3.33438 20.9916 3.26987 21.1206 3.26987 21.2495C3.26987 21.4042 3.33438 21.5073 3.57094 21.5073H14.7107C15.1623 21.5073 15.3989 21.8683 15.3989 22.3839V22.8222C15.3989 23.3636 15.1623 23.7246 14.7107 23.7246Z" fill="url(#paint0_linear_1714_3937)"/>
<path d="M22.6893 14.2322H15.528C15.0979 14.2322 14.8398 13.8454 14.8398 13.0719C14.8398 12.35 15.0979 11.9375 15.528 11.9375H22.6893C23.1409 11.9375 23.4205 12.35 23.4205 13.0719C23.4205 13.8454 23.1409 14.2322 22.6893 14.2322Z" fill="url(#paint1_linear_1714_3937)"/>
<path d="M39.7012 23.7988H39.2711C38.8195 23.7988 38.5184 23.5152 38.5184 22.948V20.7307C38.5184 16.7344 36.5829 14.9296 32.8195 14.9296H27.5722V22.948C27.5722 23.5152 27.2926 23.7988 26.841 23.7988H26.4109C25.9593 23.7988 25.6797 23.5152 25.6797 22.948V4.61651C25.6797 3.55942 26.3464 2.73438 27.2066 2.73438H35.2496C39.3141 2.73438 40.4539 5.54469 40.4539 8.27765V9.54101C40.4539 11.9904 39.1421 13.6147 37.2711 14.1561C39.3786 15.3163 40.4539 17.3532 40.4539 20.6533V22.948C40.4539 23.5152 40.1528 23.7988 39.7012 23.7988ZM38.5184 8.38078C38.5184 6.65334 37.6582 5.00325 35.2496 5.00325H28.1313C27.8087 5.00325 27.5722 5.28686 27.5722 5.6736V12.8154H35.0775C37.4646 12.8154 38.5184 11.1395 38.5184 9.48944V8.38078Z" fill="url(#paint2_linear_1714_3937)"/>
<path d="M51.8295 17.2521H44.3241V18.799C44.3241 20.2944 45.1198 21.6867 47.1413 21.6867H54.9048C55.3564 21.6867 55.593 22.0735 55.593 22.5891V22.8727C55.593 23.4141 55.3779 23.7751 54.9048 23.7751H46.7327C44.0231 23.7751 42.4102 21.7383 42.4102 18.7733V12.5339C42.4102 10.1103 43.636 7.86719 46.9048 7.86719H51.765C54.3241 7.86719 55.808 10.0072 55.808 12.1987V12.9464C55.808 15.3184 54.5177 17.2521 51.8295 17.2521ZM53.8725 12.3276C53.8725 10.9353 52.8833 9.98137 51.593 9.98137H47.1413C44.9048 9.98137 44.3241 11.5025 44.3241 12.6628V15.4473H51.5714C53.1844 15.4473 53.8725 14.5449 53.8725 12.9979V12.3276Z" fill="url(#paint3_linear_1714_3937)"/>
<path d="M65.3667 23.7439H63.6248C62.1839 23.7439 60.8076 23.2024 59.7538 22.1969V26.2448C59.7538 26.8378 59.4527 27.1214 58.9796 27.1214H58.5925C58.0979 27.1214 57.8398 26.8636 57.8398 26.2448V13.8949C57.8398 9.76964 60.0979 7.83594 63.3882 7.83594H65.4312C68.7001 7.83594 70.9581 9.84699 70.9581 13.9464V17.5302C70.9581 21.5523 68.7861 23.7439 65.3667 23.7439ZM69.0226 14.2816C69.0226 11.2393 67.4312 10.079 65.2162 10.079H63.5818C61.4097 10.079 59.7538 11.1361 59.7538 14.2043V17.2208C59.7538 20.0311 61.2592 21.5008 63.5818 21.5008H65.2162C67.6463 21.5008 69.0226 19.9796 69.0226 17.324V14.2816Z" fill="url(#paint4_linear_1714_3937)"/>
<path d="M80.7636 23.7439H78.0324C74.9141 23.7439 72.8281 21.5008 72.8281 17.9428V13.637C72.8281 10.3111 74.8496 7.83594 78.0324 7.83594H80.7636C83.8389 7.83594 86.1615 9.92434 86.1615 13.8175V17.7881C86.1615 21.6812 83.8389 23.7439 80.7636 23.7439ZM84.269 14.0753C84.269 11.3939 82.7636 10.079 80.8281 10.079H78.0969C75.8604 10.079 74.7206 11.858 74.7206 13.8175V17.7623C74.7206 19.9796 75.9034 21.5265 78.0969 21.5265H80.8281C82.8496 21.5265 84.269 20.1601 84.269 17.5302V14.0753Z" fill="url(#paint5_linear_1714_3937)"/>
<path d="M97.7418 10.1103H94.0428C91.3332 10.1103 90.0859 11.7346 90.0859 14.7769V22.8985C90.0859 23.4657 89.7633 23.7751 89.3117 23.7751H88.9246C88.4729 23.7751 88.1719 23.4657 88.1719 22.8985V14.8285C88.1719 10.1103 90.3869 7.86719 93.7848 7.86719H97.7418C98.2364 7.86719 98.473 8.20236 98.473 8.76958V9.1821C98.473 9.74932 98.2364 10.1103 97.7418 10.1103Z" fill="url(#paint6_linear_1714_3937)"/>
<path d="M111.431 10.1113H105.625V18.7485C105.625 20.8369 106.528 21.533 108.162 21.533H110.7C111.173 21.533 111.453 21.9197 111.453 22.4612V22.8221C111.453 23.3636 111.195 23.7503 110.7 23.7503H107.84C105.108 23.7503 103.732 22.2034 103.732 19.161V10.1113H100.743C100.227 10.1113 100.012 9.75032 100.012 9.1831V8.79636C100.012 8.22914 100.27 7.86818 100.743 7.86818H103.732V4.95474C103.732 4.38752 104.055 4.07812 104.506 4.07812H104.85C105.302 4.07812 105.625 4.38752 105.625 4.95474V7.86818H111.431C111.926 7.86818 112.162 8.22914 112.162 8.79636V9.1831C112.162 9.75032 111.947 10.1113 111.431 10.1113Z" fill="url(#paint7_linear_1714_3937)"/>
<path d="M123.216 17.2521H115.711V18.799C115.711 20.2944 116.507 21.6867 118.528 21.6867H126.291C126.743 21.6867 126.98 22.0735 126.98 22.5891V22.8727C126.98 23.4141 126.765 23.7751 126.291 23.7751H118.119C115.41 23.7751 113.797 21.7383 113.797 18.7733V12.5339C113.797 10.1103 115.023 7.86719 118.291 7.86719H123.152C125.711 7.86719 127.195 10.0072 127.195 12.1987V12.9464C127.195 15.3184 125.904 17.2521 123.216 17.2521ZM125.27 12.3276C125.27 10.9353 124.281 9.98137 122.99 9.98137H118.539C116.302 9.98137 115.722 11.5025 115.722 12.6628V15.4473H122.969C124.582 15.4473 125.27 14.5449 125.27 12.9979V12.3276Z" fill="url(#paint8_linear_1714_3937)"/>
<path d="M138.711 10.1103H135.012C132.302 10.1103 131.055 11.7346 131.055 14.7769V22.8985C131.055 23.4657 130.732 23.7751 130.28 23.7751H129.893C129.442 23.7751 129.141 23.4657 129.141 22.8985V14.8285C129.141 10.1103 131.356 7.86719 134.754 7.86719H138.711C139.205 7.86719 139.442 8.20236 139.442 8.76958V9.1821C139.442 9.74932 139.205 10.1103 138.711 10.1103Z" fill="url(#paint9_linear_1714_3937)"/>
<path d="M14.7107 23.7246H3.18385C1.91503 23.7246 1.0118 23.08 1.0118 21.6362C1.0118 20.8112 1.35589 20.1408 1.85051 19.6252L12.5602 5.80564C12.7537 5.59938 12.8183 5.47046 12.8183 5.34155C12.8183 5.16107 12.7322 5.05794 12.5172 5.05794H1.63546C1.16234 5.05794 0.925781 4.72276 0.925781 4.15554V3.69146C0.925781 3.15002 1.16234 2.78906 1.63546 2.78906H13.0548C14.5387 2.78906 15.1408 3.7688 15.1408 4.90324C15.1408 5.72829 14.9258 6.26973 14.1516 7.06899L3.50643 20.8112C3.33438 20.9916 3.26987 21.1206 3.26987 21.2495C3.26987 21.4042 3.33438 21.5073 3.57094 21.5073H14.7107C15.1623 21.5073 15.3989 21.8683 15.3989 22.3839V22.8222C15.3989 23.3637 15.1623 23.7246 14.7107 23.7246Z" stroke="url(#paint10_linear_1714_3937)" stroke-miterlimit="10"/>
<path d="M22.6893 14.2322H15.528C15.0979 14.2322 14.8398 13.8454 14.8398 13.0719C14.8398 12.35 15.0979 11.9375 15.528 11.9375H22.6893C23.1409 11.9375 23.4205 12.35 23.4205 13.0719C23.4205 13.8454 23.1409 14.2322 22.6893 14.2322Z" stroke="url(#paint11_linear_1714_3937)" stroke-miterlimit="10"/>
<path d="M39.7012 23.7988H39.2711C38.8195 23.7988 38.5184 23.5152 38.5184 22.948V20.7307C38.5184 16.7344 36.5829 14.9296 32.8195 14.9296H27.5722V22.948C27.5722 23.5152 27.2926 23.7988 26.841 23.7988H26.4109C25.9593 23.7988 25.6797 23.5152 25.6797 22.948V4.61651C25.6797 3.55942 26.3464 2.73438 27.2066 2.73438H35.2496C39.3141 2.73438 40.4539 5.54469 40.4539 8.27765V9.54101C40.4539 11.9904 39.1421 13.6147 37.2711 14.1561C39.3786 15.3163 40.4539 17.3532 40.4539 20.6533V22.948C40.4539 23.5152 40.1528 23.7988 39.7012 23.7988ZM38.5184 8.38078C38.5184 6.65334 37.6582 5.00325 35.2496 5.00325H28.1313C27.8087 5.00325 27.5722 5.28686 27.5722 5.6736V12.8154H35.0775C37.4646 12.8154 38.5184 11.1395 38.5184 9.48944V8.38078Z" stroke="url(#paint12_linear_1714_3937)" stroke-miterlimit="10"/>
<path d="M51.8295 17.2521H44.3241V18.799C44.3241 20.2944 45.1198 21.6867 47.1413 21.6867H54.9048C55.3564 21.6867 55.593 22.0734 55.593 22.5891V22.8727C55.593 23.4141 55.3779 23.7751 54.9048 23.7751H46.7327C44.0231 23.7751 42.4102 21.7383 42.4102 18.7733V12.5339C42.4102 10.1103 43.636 7.86719 46.9048 7.86719H51.765C54.3241 7.86719 55.808 10.0072 55.808 12.1987V12.9464C55.808 15.3184 54.5177 17.2521 51.8295 17.2521ZM53.8725 12.3276C53.8725 10.9353 52.8833 9.98137 51.593 9.98137H47.1413C44.9048 9.98137 44.3241 11.5025 44.3241 12.6628V15.4473H51.5714C53.1844 15.4473 53.8725 14.5449 53.8725 12.9979V12.3276Z" stroke="url(#paint13_linear_1714_3937)" stroke-miterlimit="10"/>
<path d="M65.3667 23.7439H63.6248C62.1839 23.7439 60.8076 23.2024 59.7538 22.1969V26.2448C59.7538 26.8378 59.4527 27.1214 58.9796 27.1214H58.5925C58.0979 27.1214 57.8398 26.8636 57.8398 26.2448V13.8949C57.8398 9.76964 60.0979 7.83594 63.3882 7.83594H65.4312C68.7001 7.83594 70.9581 9.84699 70.9581 13.9464V17.5302C70.9581 21.5523 68.7861 23.7439 65.3667 23.7439ZM69.0226 14.2816C69.0226 11.2393 67.4312 10.079 65.2162 10.079H63.5818C61.4097 10.079 59.7538 11.1361 59.7538 14.2043V17.2208C59.7538 20.0311 61.2592 21.5008 63.5818 21.5008H65.2162C67.6463 21.5008 69.0226 19.9796 69.0226 17.324V14.2816Z" stroke="url(#paint14_linear_1714_3937)" stroke-miterlimit="10"/>
<path d="M80.7636 23.7439H78.0324C74.9141 23.7439 72.8281 21.5008 72.8281 17.9428V13.637C72.8281 10.3111 74.8496 7.83594 78.0324 7.83594H80.7636C83.8389 7.83594 86.1615 9.92434 86.1615 13.8175V17.7881C86.1615 21.6812 83.8389 23.7439 80.7636 23.7439ZM84.269 14.0753C84.269 11.3939 82.7636 10.079 80.8281 10.079H78.0969C75.8604 10.079 74.7206 11.858 74.7206 13.8175V17.7623C74.7206 19.9796 75.9034 21.5265 78.0969 21.5265H80.8281C82.8496 21.5265 84.269 20.1601 84.269 17.5302V14.0753Z" stroke="url(#paint15_linear_1714_3937)" stroke-miterlimit="10"/>
<path d="M97.7418 10.1103H94.0428C91.3332 10.1103 90.0859 11.7346 90.0859 14.7769V22.8985C90.0859 23.4657 89.7633 23.7751 89.3117 23.7751H88.9246C88.4729 23.7751 88.1719 23.4657 88.1719 22.8985V14.8285C88.1719 10.1103 90.3869 7.86719 93.7848 7.86719H97.7418C98.2364 7.86719 98.473 8.20236 98.473 8.76958V9.1821C98.473 9.74932 98.2364 10.1103 97.7418 10.1103Z" stroke="url(#paint16_linear_1714_3937)" stroke-miterlimit="10"/>
<path d="M111.431 10.1113H105.625V18.7485C105.625 20.8369 106.528 21.533 108.162 21.533H110.7C111.173 21.533 111.453 21.9197 111.453 22.4612V22.8221C111.453 23.3636 111.195 23.7503 110.7 23.7503H107.84C105.108 23.7503 103.732 22.2034 103.732 19.161V10.1113H100.743C100.227 10.1113 100.012 9.75031 100.012 9.1831V8.79636C100.012 8.22914 100.27 7.86818 100.743 7.86818H103.732V4.95474C103.732 4.38752 104.055 4.07812 104.506 4.07812H104.85C105.302 4.07812 105.625 4.38752 105.625 4.95474V7.86818H111.431C111.926 7.86818 112.162 8.22914 112.162 8.79636V9.1831C112.162 9.75031 111.947 10.1113 111.431 10.1113Z" stroke="url(#paint17_linear_1714_3937)" stroke-miterlimit="10"/>
<path d="M123.216 17.2521H115.711V18.799C115.711 20.2944 116.507 21.6867 118.528 21.6867H126.291C126.743 21.6867 126.98 22.0734 126.98 22.5891V22.8727C126.98 23.4141 126.765 23.7751 126.291 23.7751H118.119C115.41 23.7751 113.797 21.7383 113.797 18.7733V12.5339C113.797 10.1103 115.023 7.86719 118.291 7.86719H123.152C125.711 7.86719 127.195 10.0072 127.195 12.1987V12.9464C127.195 15.3184 125.904 17.2521 123.216 17.2521ZM125.27 12.3276C125.27 10.9353 124.281 9.98137 122.99 9.98137H118.539C116.302 9.98137 115.722 11.5025 115.722 12.6628V15.4473H122.969C124.582 15.4473 125.27 14.5449 125.27 12.9979V12.3276Z" stroke="url(#paint18_linear_1714_3937)" stroke-miterlimit="10"/>
<path d="M138.711 10.1103H135.012C132.302 10.1103 131.055 11.7346 131.055 14.7769V22.8985C131.055 23.4657 130.732 23.7751 130.28 23.7751H129.893C129.442 23.7751 129.141 23.4657 129.141 22.8985V14.8285C129.141 10.1103 131.356 7.86719 134.754 7.86719H138.711C139.205 7.86719 139.442 8.20236 139.442 8.76958V9.1821C139.442 9.74932 139.205 10.1103 138.711 10.1103Z" stroke="url(#paint19_linear_1714_3937)" stroke-miterlimit="10"/>
<defs>
<linearGradient id="paint0_linear_1714_3937" x1="0.925781" y1="14.9327" x2="139.442" y2="14.9327" gradientUnits="userSpaceOnUse">
<stop offset="0.2" stop-color="#094D97"/>
<stop offset="0.7" stop-color="#1D9AD8"/>
</linearGradient>
<linearGradient id="paint1_linear_1714_3937" x1="0.925865" y1="14.9283" x2="139.442" y2="14.9283" gradientUnits="userSpaceOnUse">
<stop offset="0.2" stop-color="#094D97"/>
<stop offset="0.7" stop-color="#1D9AD8"/>
</linearGradient>
<linearGradient id="paint2_linear_1714_3937" x1="0.927001" y1="14.9296" x2="139.443" y2="14.9296" gradientUnits="userSpaceOnUse">
<stop offset="0.2" stop-color="#094D97"/>
<stop offset="0.7" stop-color="#1D9AD8"/>
</linearGradient>
<linearGradient id="paint3_linear_1714_3937" x1="0.926274" y1="14.9316" x2="139.442" y2="14.9316" gradientUnits="userSpaceOnUse">
<stop offset="0.2" stop-color="#094D97"/>
<stop offset="0.7" stop-color="#1D9AD8"/>
</linearGradient>
<linearGradient id="paint4_linear_1714_3937" x1="0.925879" y1="14.9262" x2="139.442" y2="14.9262" gradientUnits="userSpaceOnUse">
<stop offset="0.2" stop-color="#094D97"/>
<stop offset="0.7" stop-color="#1D9AD8"/>
</linearGradient>
<linearGradient id="paint5_linear_1714_3937" x1="0.924932" y1="14.9262" x2="139.441" y2="14.9262" gradientUnits="userSpaceOnUse">
<stop offset="0.2" stop-color="#094D97"/>
<stop offset="0.7" stop-color="#1D9AD8"/>
</linearGradient>
<linearGradient id="paint6_linear_1714_3937" x1="0.924546" y1="14.9316" x2="139.441" y2="14.9316" gradientUnits="userSpaceOnUse">
<stop offset="0.2" stop-color="#094D97"/>
<stop offset="0.7" stop-color="#1D9AD8"/>
</linearGradient>
<linearGradient id="paint7_linear_1714_3937" x1="0.925737" y1="14.9326" x2="139.442" y2="14.9326" gradientUnits="userSpaceOnUse">
<stop offset="0.2" stop-color="#094D97"/>
<stop offset="0.7" stop-color="#1D9AD8"/>
</linearGradient>
<linearGradient id="paint8_linear_1714_3937" x1="0.925904" y1="14.9316" x2="139.442" y2="14.9316" gradientUnits="userSpaceOnUse">
<stop offset="0.2" stop-color="#094D97"/>
<stop offset="0.7" stop-color="#1D9AD8"/>
</linearGradient>
<linearGradient id="paint9_linear_1714_3937" x1="0.925652" y1="14.9316" x2="139.442" y2="14.9316" gradientUnits="userSpaceOnUse">
<stop offset="0.2" stop-color="#094D97"/>
<stop offset="0.7" stop-color="#1D9AD8"/>
</linearGradient>
<linearGradient id="paint10_linear_1714_3937" x1="0.925781" y1="14.9327" x2="139.442" y2="14.9327" gradientUnits="userSpaceOnUse">
<stop offset="0.2" stop-color="#094D97"/>
<stop offset="0.7" stop-color="#1D9AD8"/>
</linearGradient>
<linearGradient id="paint11_linear_1714_3937" x1="0.925865" y1="14.9283" x2="139.442" y2="14.9283" gradientUnits="userSpaceOnUse">
<stop offset="0.2" stop-color="#094D97"/>
<stop offset="0.7" stop-color="#1D9AD8"/>
</linearGradient>
<linearGradient id="paint12_linear_1714_3937" x1="0.927001" y1="14.9296" x2="139.443" y2="14.9296" gradientUnits="userSpaceOnUse">
<stop offset="0.2" stop-color="#094D97"/>
<stop offset="0.7" stop-color="#1D9AD8"/>
</linearGradient>
<linearGradient id="paint13_linear_1714_3937" x1="0.926274" y1="14.9316" x2="139.442" y2="14.9316" gradientUnits="userSpaceOnUse">
<stop offset="0.2" stop-color="#094D97"/>
<stop offset="0.7" stop-color="#1D9AD8"/>
</linearGradient>
<linearGradient id="paint14_linear_1714_3937" x1="0.925879" y1="14.9262" x2="139.442" y2="14.9262" gradientUnits="userSpaceOnUse">
<stop offset="0.2" stop-color="#094D97"/>
<stop offset="0.7" stop-color="#1D9AD8"/>
</linearGradient>
<linearGradient id="paint15_linear_1714_3937" x1="0.924932" y1="14.9262" x2="139.441" y2="14.9262" gradientUnits="userSpaceOnUse">
<stop offset="0.2" stop-color="#094D97"/>
<stop offset="0.7" stop-color="#1D9AD8"/>
</linearGradient>
<linearGradient id="paint16_linear_1714_3937" x1="0.924546" y1="14.9316" x2="139.441" y2="14.9316" gradientUnits="userSpaceOnUse">
<stop offset="0.2" stop-color="#094D97"/>
<stop offset="0.7" stop-color="#1D9AD8"/>
</linearGradient>
<linearGradient id="paint17_linear_1714_3937" x1="0.925737" y1="14.9326" x2="139.442" y2="14.9326" gradientUnits="userSpaceOnUse">
<stop offset="0.2" stop-color="#094D97"/>
<stop offset="0.7" stop-color="#1D9AD8"/>
</linearGradient>
<linearGradient id="paint18_linear_1714_3937" x1="0.925904" y1="14.9316" x2="139.442" y2="14.9316" gradientUnits="userSpaceOnUse">
<stop offset="0.2" stop-color="#094D97"/>
<stop offset="0.7" stop-color="#1D9AD8"/>
</linearGradient>
<linearGradient id="paint19_linear_1714_3937" x1="0.925652" y1="14.9316" x2="139.442" y2="14.9316" gradientUnits="userSpaceOnUse">
<stop offset="0.2" stop-color="#094D97"/>
<stop offset="0.7" stop-color="#1D9AD8"/>
</linearGradient>
</defs>
</svg>
