<svg width="22" height="23" viewBox="0 0 22 23" fill="none" xmlns="http://www.w3.org/2000/svg">
<path d="M17.3385 10.0208V6.91927L12.7552 2.33594H4.50521C4.01898 2.33594 3.55266 2.52909 3.20885 2.87291C2.86503 3.21672 2.67188 3.68304 2.67188 4.16927V18.8359C2.67188 19.3222 2.86503 19.7885 3.20885 20.1323C3.55266 20.4761 4.01898 20.6693 4.50521 20.6693H14.0039" stroke="#0051A3" stroke-width="1.5" stroke-linecap="round" stroke-linejoin="round"/>
<path d="M13 12.5H6M7.75 8.5H6M11.5 16.5L6 16.5" stroke="#0051A3" stroke-width="1.5" stroke-linecap="round" stroke-linejoin="round"/>
<path d="M11.8281 2.33594V6.0026C11.8281 6.48883 12.0213 6.95515 12.3651 7.29897C12.7089 7.64278 13.1752 7.83594 13.6615 7.83594H17.3281" stroke="#0051A3" stroke-width="1.5" stroke-linecap="round" stroke-linejoin="round"/>
<path d="M14.5469 16.25H20.0469" stroke="#0051A3" stroke-width="1.5" stroke-linecap="round" stroke-linejoin="round"/>
<path d="M17.2969 19V13.5" stroke="#0051A3" stroke-width="1.5" stroke-linecap="round" stroke-linejoin="round"/>
</svg>
